<svg width="21" height="23" viewBox="0 0 21 23" fill="none" xmlns="http://www.w3.org/2000/svg">
<path d="M10.2925 0C13.5782 0 16.2642 2.68593 16.2642 5.97166C16.2642 9.2574 13.5782 11.9433 10.2925 11.9433C7.00676 11.9433 4.32084 9.2574 4.32084 5.97166C4.32084 2.68593 7.00676 0 10.2925 0Z" fill="#C1C1C1"/>
<path d="M0.044117 16.7154C0.200594 16.3243 0.409182 15.9592 0.643873 15.6202C1.84344 13.8469 3.69487 12.6735 5.78104 12.3866C6.04178 12.3606 6.32863 12.4127 6.53727 12.5691C7.63252 13.3775 8.93635 13.7948 10.2924 13.7948C11.6484 13.7948 12.9523 13.3775 14.0475 12.5691C14.2561 12.4127 14.543 12.3344 14.8037 12.3866C16.8899 12.6735 18.7674 13.8469 19.9409 15.6202C20.1756 15.9592 20.3842 16.3504 20.5407 16.7154C20.6189 16.8719 20.5928 17.0544 20.5146 17.2109C20.306 17.576 20.0452 17.9411 19.8105 18.254C19.4455 18.7495 19.0543 19.1928 18.611 19.61C18.2459 19.9751 17.8287 20.3141 17.4114 20.6531C15.3513 22.1917 12.874 23 10.3184 23C7.76289 23 5.28555 22.1916 3.22548 20.6531C2.80826 20.3402 2.39104 19.9751 2.02592 19.61C1.6087 19.1928 1.19147 18.7494 0.826355 18.254C0.565609 17.915 0.330868 17.576 0.12228 17.2109C-0.00804329 17.0544 -0.0340977 16.8719 0.044117 16.7154Z" fill="#C1C1C1"/>
</svg>
